<?xml version="1.0" encoding="utf-8"?>
<!-- Generator: Adobe Illustrator 19.0.0, SVG Export Plug-In . SVG Version: 6.00 Build 0)  -->
<svg version="1.1" id="Layer_1" xmlns="http://www.w3.org/2000/svg" xmlns:xlink="http://www.w3.org/1999/xlink" x="0px" y="0px"
	 viewBox="0 0 53 23" style="enable-background:new 0 0 53 23;" xml:space="preserve">
<style type="text/css">
	.st0{fill:#E4E8EB;}
</style>
<path id="XMLID_3_" class="st0" d="M52.4,11.8c0,0.2-0.1,0.5-0.3,0.7l-7.6,8.2c-0.4,0.4-1,0.4-1.4,0.1c-0.4-0.4-0.4-1,0-1.4l7-7.6
	l-7-7.8c-0.4-0.4-0.3-1,0.1-1.4s1-0.3,1.4,0.1l7.6,8.5C52.4,11.3,52.4,11.5,52.4,11.8L52.4,11.8z"/>
<path id="XMLID_4_" class="st0" d="M51.5,12.5H1.1c-0.3,0-0.6-0.3-0.6-0.6v-0.6c0-0.3,0.3-0.6,0.6-0.6h50.3c0.3,0,0.6,0.3,0.6,0.6
	v0.6C52,12.2,51.8,12.5,51.5,12.5z"/>
</svg>
