<?xml version="1.0" encoding="utf-8"?>
<!-- Generator: Adobe Illustrator 17.0.0, SVG Export Plug-In . SVG Version: 6.00 Build 0)  -->
<!DOCTYPE svg PUBLIC "-//W3C//DTD SVG 1.1//EN" "http://www.w3.org/Graphics/SVG/1.1/DTD/svg11.dtd">
<svg version="1.1" id="Layer_1" xmlns="http://www.w3.org/2000/svg" xmlns:xlink="http://www.w3.org/1999/xlink" x="0px" y="0px"
	 width="50px" height="50px" viewBox="0 0 50 50" enable-background="new 0 0 50 50" xml:space="preserve">
<circle fill="#359CD6" cx="25" cy="25" r="24.477"/>
<path fill="#FFFFFF" d="M25.485,5.665C17.937,5.472,10.951,9.677,7.604,16.454c-0.175,0.351-0.033,0.777,0.318,0.953
	c0.35,0.175,0.777,0.033,0.952-0.318l0,0c3.106-6.29,9.569-10.203,16.575-10.023c6.969,0.178,13.194,4.367,15.996,10.751
	c-1.419,0.542-2.441,1.924-2.427,3.528c0.019,2.058,1.734,3.734,3.789,3.714c2.055-0.019,3.715-1.731,3.696-3.789
	c-0.018-2.019-1.655-3.653-3.658-3.696c-0.014-0.072-0.039-0.141-0.075-0.205C39.773,10.43,33.033,5.858,25.485,5.665z
	 M42.751,18.974c1.298-0.012,2.34,1.015,2.352,2.315c0.012,1.3-1.016,2.358-2.315,2.371c-1.298,0.012-2.34-1.033-2.352-2.333
	C40.424,20.026,41.453,18.986,42.751,18.974z"/>
<path fill="#FFFFFF" d="M7.193,25.152c-2.055,0.019-3.715,1.713-3.696,3.77c0.019,2.058,1.715,3.734,3.77,3.714
	c0.071,0,0.136-0.014,0.205-0.019c0.006,0.006,0.012,0.012,0.019,0.019c3.034,7.026,9.901,11.61,17.545,11.703
	c7.644,0.093,14.641-4.324,17.844-11.274c0.122-0.368-0.077-0.765-0.444-0.888c-0.313-0.104-0.657,0.024-0.825,0.309
	c-2.973,6.45-9.461,10.539-16.556,10.453c-7.033-0.085-13.349-4.271-16.202-10.695c1.254-0.615,2.123-1.912,2.109-3.397
	C10.945,26.79,9.249,25.133,7.193,25.152L7.193,25.152z M7.212,26.552c1.298-0.012,2.34,1.015,2.352,2.315
	c0.012,1.3-1.016,2.358-2.315,2.37c-1.298,0.012-2.34-1.034-2.352-2.333C4.885,27.604,5.914,26.564,7.212,26.552z"/>
<text transform="matrix(1 0 0 1 18.9937 32.4062)" fill="#FFFFFF" font-family="'Helvetica'" font-size="21.114">$</text>
</svg>
