<?xml version="1.0" encoding="utf-8"?>
<!-- Generator: Adobe Illustrator 17.0.0, SVG Export Plug-In . SVG Version: 6.00 Build 0)  -->
<!DOCTYPE svg PUBLIC "-//W3C//DTD SVG 1.1//EN" "http://www.w3.org/Graphics/SVG/1.1/DTD/svg11.dtd">
<svg version="1.1" id="Layer_1" xmlns="http://www.w3.org/2000/svg" xmlns:xlink="http://www.w3.org/1999/xlink" x="0px" y="0px"
	 width="32px" height="32px" viewBox="0 0 32 32" enable-background="new 0 0 32 32" xml:space="preserve">
<g>
	<path fill="#424242" d="M16,0.217C7.368,0.211,0.37,7.28,0.361,15.993C0.37,24.719,7.368,31.787,16,31.783
		c8.634,0.003,15.633-7.064,15.639-15.79C31.632,7.28,24.634,0.211,16,0.217z M17.56,24.584h-2.891v-2.933h2.891V24.584z
		 M18.57,16.642c-0.751,0.491-1.031,1.06-1.023,1.661v2.214l-2.864,0.013v-3.306c0.002-0.98,0.323-1.649,1.257-2.254l1.607-1.094
		c1.03-0.703,1.025-2.119,0.386-2.753c-0.566-0.545-1.514-0.863-2.531-0.664c-1.848,0.379-1.997,1.748-1.992,3.043v0.568h-2.863
		c0.004-2.434,0.273-3.538,1.548-4.925c1.419-1.565,3.423-1.816,5.271-1.44c1.85,0.39,4.051,2.194,4.054,4.814
		C21.416,15.15,19.322,16.148,18.57,16.642z"/>
</g>
</svg>
